<svg version="1.1" preserveAspectRatio="none"
  xmlns="http://www.w3.org/2000/svg" width="1000" height="1000" viewBox="0 0 1000 1000">
  
  <svg viewBox="17.853 233.2605 482.959 229.8" width="908" height="410" x="83.5px" y="270.7765px"
    xmlns="http://www.w3.org/2000/svg"
    xmlns:xlink="http://www.w3.org/1999/xlink" preserveAspectRatio="none">
    <defs></defs>
    <style>.a7KDWqqaqfillColor {fill:#ebebeb;fill-opacity:0;}.aZzOTVRhffillColor {fill:#ebebeb;fill-opacity:0;}.companyName {fill:#F3F3F3;fill-opacity:1;}.icon3-str {stroke:#A6A6A6;stroke-opacity:0;}.shapeStroke-str {stroke:#F3F3F3;stroke-opacity:1;}.text {fill:#F3F3F3;fill-opacity:1;}</style>
    <g opacity="1" transform="rotate(0 37.853 253.2605)">
      <svg width="90.959" height="209.8" x="37.853" y="253.2605" version="1.1" preserveAspectRatio="none" viewBox="0 0 462.959 209.8">
        <defs>
          <rect x="1.5735000000000001" y="1.5735000000000001" width="459.812" height="206.65300000000002" rx="0%" ry="0%" id="id-ZzOTVRhf1727689831185"></rect>
        </defs>
        <use class="aZzOTVRhffillColor shapeStroke-str" style="stroke-width:3.1470000000000002;" xlink:href="#id-ZzOTVRhf1727689831185"></use>
      </svg>
    </g>
    <g opacity="1" transform="rotate(0 17.853 233.2605)">
      <svg width="462.959" height="209.8" x="17.853" y="233.2605" version="1.1" preserveAspectRatio="none" viewBox="0 0 462.959 209.8">
        <defs>
          <rect x="1.5735000000000001" y="1.5735000000000001" width="459.812" height="206.65300000000002" rx="0px" ry="0px" id="id-7KDWqqaq1727689831185"></rect>
        </defs>
        <use class="a7KDWqqaqfillColor shapeStroke-str" style="stroke-width:3.1470000000000002;" xlink:href="#id-7KDWqqaq1727689831185"></use>
      </svg>
    </g>
    <g opacity="1" transform="rotate(0 85.8106 379.2605)">
      <svg width="347.0438" height="23.8" x="85.8106" y="379.2605" version="1.1" preserveAspectRatio="none" viewBox="2.36 -31 523.16 35.88">
        <g transform="matrix(1 0 0 1 0 0)" class="text">
          <path id="id-6izo4zJp27" d="M25.40-2.16Q24-1.24 21.86-0.46Q19.72 0.32 17.20 0.32L17.20 0.32Q12.76 0.32 9.38-1.64Q6-3.60 4.18-6.92Q2.36-10.24 2.36-14.24L2.36-14.24Q2.36-18.52 4.20-21.94Q6.04-25.36 9.30-27.30Q12.56-29.24 16.68-29.24L16.68-29.24Q19.12-29.24 21.24-28.60Q23.36-27.96 25.04-26.92L25.04-26.92L23.48-23.28Q20.16-25.52 16.80-25.52L16.80-25.52Q14-25.52 11.62-24.04Q9.24-22.56 7.82-20.02Q6.40-17.48 6.40-14.44L6.40-14.44Q6.40-11.32 7.70-8.80Q9-6.28 11.42-4.86Q13.84-3.44 17-3.44L17-3.44Q20.88-3.44 23.76-5.64L23.76-5.64L25.40-2.16Z M31.96-8.44Q31.96-10.88 33.14-12.90Q34.32-14.92 36.42-16.08Q38.52-17.24 41.16-17.24L41.16-17.24Q43.80-17.24 45.86-16.08Q47.92-14.92 49.06-12.92Q50.20-10.92 50.20-8.44L50.20-8.44Q50.20-5.96 49.06-3.94Q47.92-1.92 45.84-0.76Q43.76 0.40 41.08 0.40L41.08 0.40Q38.48 0.40 36.40-0.70Q34.32-1.80 33.14-3.80Q31.96-5.80 31.96-8.44L31.96-8.44ZM35.72-8.40Q35.72-6.84 36.42-5.52Q37.12-4.20 38.34-3.44Q39.56-2.68 41.04-2.68L41.04-2.68Q43.36-2.68 44.88-4.32Q46.40-5.96 46.40-8.40L46.40-8.40Q46.40-10.84 44.88-12.50Q43.36-14.16 41.04-14.16L41.04-14.16Q39.52-14.16 38.32-13.38Q37.12-12.60 36.42-11.28Q35.72-9.96 35.72-8.40L35.72-8.40Z M71.16-31L74.88-31L74.88 0L71.12 0L71.12-2.60Q69.92-1.20 68.18-0.40Q66.44 0.40 64.36 0.40L64.36 0.40Q62.04 0.40 60.16-0.72Q58.28-1.84 57.22-3.86Q56.16-5.88 56.16-8.52L56.16-8.52Q56.16-11.20 57.28-13.18Q58.40-15.16 60.36-16.20Q62.32-17.24 64.80-17.24L64.80-17.24Q66.68-17.24 68.42-16.46Q70.16-15.68 71.16-14.32L71.16-14.32L71.16-31ZM65.52-2.80Q67.68-2.80 69.18-3.96Q70.68-5.12 71.12-7.08L71.12-7.08L71.12-10.20Q70.64-12 69.08-13.14Q67.52-14.28 65.52-14.28L65.52-14.28Q64-14.28 62.72-13.54Q61.44-12.80 60.68-11.50Q59.92-10.20 59.92-8.56L59.92-8.56Q59.92-6.96 60.68-5.64Q61.44-4.32 62.72-3.56Q64-2.80 65.52-2.80L65.52-2.80Z M83.72-16.56L87.44-16.56L87.44 0L83.72 0L83.72-16.56ZM83.44-22.52Q83.44-23.40 84.12-24Q84.80-24.60 85.68-24.60L85.68-24.60Q86.56-24.60 87.22-24Q87.88-23.40 87.88-22.52L87.88-22.52Q87.88-21.64 87.22-21.04Q86.56-20.44 85.68-20.44L85.68-20.44Q84.80-20.44 84.12-21.04Q83.44-21.64 83.44-22.52L83.44-22.52Z M97.68 0L97.68-13.24L94.84-13.24L94.84-16.60L97.68-16.60L97.68-23.56Q97.68-27.16 99.32-29.08Q100.96-31 104.12-31L104.12-31Q105.00-31 106.00-30.74Q107.00-30.48 107.76-30L107.76-30L106.16-27.28Q105.56-27.92 104.48-27.92L104.48-27.92Q102.96-27.92 102.18-26.88Q101.40-25.84 101.40-23.52L101.40-23.52L101.40-16.60L106.68-16.60L106.68-13.24L101.40-13.24L101.40 0L97.68 0Z M113.92-16.56L117.64-16.56L117.64 0L113.92 0L113.92-16.56ZM113.64-22.52Q113.64-23.40 114.32-24Q115.00-24.60 115.88-24.60L115.88-24.60Q116.76-24.60 117.42-24Q118.08-23.40 118.08-22.52L118.08-22.52Q118.08-21.64 117.42-21.04Q116.76-20.44 115.88-20.44L115.88-20.44Q115.00-20.44 114.32-21.04Q113.64-21.64 113.64-22.52L113.64-22.52Z M139.96-1.56Q138.84-0.64 137.30-0.12Q135.76 0.40 134.16 0.40L134.16 0.40Q131.48 0.40 129.42-0.68Q127.36-1.76 126.22-3.74Q125.08-5.72 125.08-8.32L125.08-8.32Q125.08-10.88 126.28-12.86Q127.48-14.84 129.48-15.92Q131.48-17 133.80-17L133.80-17Q137.60-17 140.08-14.92L140.08-14.92L138.20-12.48Q137.40-13.08 136.36-13.50Q135.32-13.92 134.12-13.92L134.12-13.92Q132.64-13.92 131.42-13.18Q130.20-12.44 129.50-11.16Q128.80-9.88 128.80-8.32L128.80-8.32Q128.80-6.76 129.54-5.48Q130.28-4.20 131.56-3.44Q132.84-2.68 134.48-2.68L134.48-2.68Q136.52-2.68 138.04-3.88L138.04-3.88L139.96-1.56Z M160.72-16.56L164.16-16.56L164.16 0L160.44 0L160.44-2.72Q159.56-1.56 157.88-0.58Q156.20 0.40 154.08 0.40L154.08 0.40Q151.72 0.40 149.82-0.62Q147.92-1.64 146.82-3.60Q145.72-5.56 145.72-8.28L145.72-8.28Q145.72-11 146.86-13.02Q148.00-15.04 149.94-16.14Q151.88-17.24 154.24-17.24L154.24-17.24Q156.36-17.24 157.92-16.32Q159.48-15.40 160.44-13.92L160.44-13.92L160.72-16.56ZM155.08-2.68Q157.12-2.68 158.58-3.82Q160.04-4.96 160.44-6.92L160.44-6.92L160.44-10.20Q159.96-11.96 158.44-13.06Q156.92-14.16 154.96-14.16L154.96-14.16Q153.48-14.16 152.22-13.44Q150.96-12.72 150.22-11.42Q149.48-10.12 149.48-8.48L149.48-8.48Q149.48-6.88 150.24-5.56Q151.00-4.24 152.28-3.46Q153.56-2.68 155.08-2.68L155.08-2.68Z M176.44-3.52L174.12 2.08L172.96 4.88L169.92 4.88L170.96 2.08Q172.76-2.76 173.04-3.52L173.04-3.52L176.44-3.52Z M212.04-1.56Q210.92-0.64 209.38-0.12Q207.84 0.40 206.24 0.40L206.24 0.40Q203.56 0.40 201.50-0.68Q199.44-1.76 198.30-3.74Q197.16-5.72 197.16-8.32L197.16-8.32Q197.16-10.88 198.36-12.86Q199.56-14.84 201.56-15.92Q203.56-17 205.88-17L205.88-17Q209.68-17 212.16-14.92L212.16-14.92L210.28-12.48Q209.48-13.08 208.44-13.50Q207.40-13.92 206.20-13.92L206.20-13.92Q204.72-13.92 203.50-13.18Q202.28-12.44 201.58-11.16Q200.88-9.88 200.88-8.32L200.88-8.32Q200.88-6.76 201.62-5.48Q202.36-4.20 203.64-3.44Q204.92-2.68 206.56-2.68L206.56-2.68Q208.60-2.68 210.12-3.88L210.12-3.88L212.04-1.56Z M217.80-8.44Q217.80-10.88 218.98-12.90Q220.16-14.92 222.26-16.08Q224.36-17.24 227.00-17.24L227.00-17.24Q229.64-17.24 231.70-16.08Q233.76-14.92 234.90-12.92Q236.04-10.92 236.04-8.44L236.04-8.44Q236.04-5.96 234.90-3.94Q233.76-1.92 231.68-0.76Q229.60 0.40 226.92 0.40L226.92 0.40Q224.32 0.40 222.24-0.70Q220.16-1.80 218.98-3.80Q217.80-5.80 217.80-8.44L217.80-8.44ZM221.56-8.40Q221.56-6.84 222.26-5.52Q222.96-4.20 224.18-3.44Q225.40-2.68 226.88-2.68L226.88-2.68Q229.20-2.68 230.72-4.32Q232.24-5.96 232.24-8.40L232.24-8.40Q232.24-10.84 230.72-12.50Q229.20-14.16 226.88-14.16L226.88-14.16Q225.36-14.16 224.16-13.38Q222.96-12.60 222.26-11.28Q221.56-9.96 221.56-8.40L221.56-8.40Z M251.20-2.80Q253.28-2.80 255.24-4.24L255.24-4.24L256.96-1.48Q255.64-0.60 254.10-0.10Q252.56 0.40 251.12 0.40L251.12 0.40Q248.36 0.40 246.30-0.74Q244.24-1.88 243.12-3.88Q242.00-5.88 242.00-8.40L242.00-8.40Q242.00-10.84 243.22-12.86Q244.44-14.88 246.56-16.06Q248.68-17.24 251.20-17.24L251.20-17.24Q254.44-17.24 256.62-15.34Q258.80-13.44 259.60-10.04L259.60-10.04L246.48-5.44Q247.20-4.20 248.42-3.50Q249.64-2.80 251.20-2.80L251.20-2.80ZM250.92-14.28Q248.64-14.28 247.16-12.68Q245.68-11.08 245.68-8.60L245.68-8.60Q245.68-8 245.72-7.68L245.72-7.68L255.36-11.24Q254.76-12.60 253.66-13.44Q252.56-14.28 250.92-14.28L250.92-14.28Z M280.80 0L276.28 0L271.84-5.84L267.68 0L263.88 0L269.96-8.32L263.68-16.56L268.32-16.56L272.68-10.80L276.40-16.56L280.16-16.56L274.40-8.52L280.80 0Z M287.20-16.56L290.92-16.56L290.92 0L287.20 0L287.20-16.56ZM286.92-22.52Q286.92-23.40 287.60-24Q288.28-24.60 289.16-24.60L289.16-24.60Q290.04-24.60 290.70-24Q291.36-23.40 291.36-22.52L291.36-22.52Q291.36-21.64 290.70-21.04Q290.04-20.44 289.16-20.44L289.16-20.44Q288.28-20.44 287.60-21.04Q286.92-21.64 286.92-22.52L286.92-22.52Z M304.48 0.36Q302.64 0.36 300.98-0.28Q299.32-0.92 298.28-2.16L298.28-2.16L299.88-4.32Q300.88-3.36 301.98-2.84Q303.08-2.32 304.16-2.32L304.16-2.32Q305.48-2.32 306.32-2.84Q307.16-3.36 307.16-4.44L307.16-4.44Q307.16-5.28 306.64-5.80Q306.12-6.32 305.46-6.56Q304.80-6.80 303.24-7.28L303.24-7.28Q299.00-8.64 299.00-12.12L299.00-12.12Q299.00-14.20 300.54-15.68Q302.08-17.16 304.84-17.16L304.84-17.16Q306.60-17.16 307.96-16.72Q309.32-16.28 310.48-15.32L310.48-15.32L309.00-13.04Q308.36-13.72 307.38-14.12Q306.40-14.52 305.52-14.56L305.52-14.56Q304.40-14.56 303.60-14.02Q302.80-13.48 302.80-12.56L302.80-12.56Q302.80-11.80 303.32-11.30Q303.84-10.80 304.40-10.58Q304.96-10.36 306.60-9.84L306.60-9.84Q308.64-9.16 309.78-8.08Q310.92-7 310.92-5.16L310.92-5.16Q310.92-2.76 309.24-1.20Q307.56 0.36 304.48 0.36L304.48 0.36Z M320.12-23.84L323.88-23.84L323.88-16.52L328.40-16.52L328.40-13.56L323.88-13.56L323.88 0L320.12 0L320.12-13.56L317.08-13.56L317.08-16.52L320.12-16.52L320.12-23.84Z M343.08-2.80Q345.16-2.80 347.12-4.24L347.12-4.24L348.84-1.48Q347.52-0.60 345.98-0.10Q344.44 0.40 343.00 0.40L343.00 0.40Q340.24 0.40 338.18-0.74Q336.12-1.88 335.00-3.88Q333.88-5.88 333.88-8.40L333.88-8.40Q333.88-10.84 335.10-12.86Q336.32-14.88 338.44-16.06Q340.56-17.24 343.08-17.24L343.08-17.24Q346.32-17.24 348.50-15.34Q350.68-13.44 351.48-10.04L351.48-10.04L338.36-5.44Q339.08-4.20 340.30-3.50Q341.52-2.80 343.08-2.80L343.08-2.80ZM342.80-14.28Q340.52-14.28 339.04-12.68Q337.56-11.08 337.56-8.60L337.56-8.60Q337.56-8 337.60-7.68L337.60-7.68L347.24-11.24Q346.64-12.60 345.54-13.44Q344.44-14.28 342.80-14.28L342.80-14.28Z M361.92-3.52L359.60 2.08L358.44 4.88L355.40 4.88L356.44 2.08Q358.24-2.76 358.52-3.52L358.52-3.52L361.92-3.52Z M397.52-1.56Q396.40-0.64 394.86-0.12Q393.32 0.40 391.72 0.40L391.72 0.40Q389.04 0.40 386.98-0.68Q384.92-1.76 383.78-3.74Q382.64-5.72 382.64-8.32L382.64-8.32Q382.64-10.88 383.84-12.86Q385.04-14.84 387.04-15.92Q389.04-17 391.36-17L391.36-17Q395.16-17 397.64-14.92L397.64-14.92L395.76-12.48Q394.96-13.08 393.92-13.50Q392.88-13.92 391.68-13.92L391.68-13.92Q390.20-13.92 388.98-13.18Q387.76-12.44 387.06-11.16Q386.36-9.88 386.36-8.32L386.36-8.32Q386.36-6.76 387.10-5.48Q387.84-4.20 389.12-3.44Q390.40-2.68 392.04-2.68L392.04-2.68Q394.08-2.68 395.60-3.88L395.60-3.88L397.52-1.56Z M403.28-8.44Q403.28-10.88 404.46-12.90Q405.64-14.92 407.74-16.08Q409.84-17.24 412.48-17.24L412.48-17.24Q415.12-17.24 417.18-16.08Q419.24-14.92 420.38-12.92Q421.52-10.92 421.52-8.44L421.52-8.44Q421.52-5.96 420.38-3.94Q419.24-1.92 417.16-0.76Q415.08 0.40 412.40 0.40L412.40 0.40Q409.80 0.40 407.72-0.70Q405.64-1.80 404.46-3.80Q403.28-5.80 403.28-8.44L403.28-8.44ZM407.04-8.40Q407.04-6.84 407.74-5.52Q408.44-4.20 409.66-3.44Q410.88-2.68 412.36-2.68L412.36-2.68Q414.68-2.68 416.20-4.32Q417.72-5.96 417.72-8.40L417.72-8.40Q417.72-10.84 416.20-12.50Q414.68-14.16 412.36-14.16L412.36-14.16Q410.84-14.16 409.64-13.38Q408.44-12.60 407.74-11.28Q407.04-9.96 407.04-8.40L407.04-8.40Z M439.20-17.20Q441.52-17.20 443.04-15.82Q444.56-14.44 444.60-12.24L444.60-12.24L444.60 0L440.84 0L440.84-10.96Q440.76-12.36 440.00-13.16Q439.24-13.96 437.72-14L437.72-14Q435.52-14 434.08-12.24Q432.64-10.48 432.64-7.76L432.64-7.76L432.64 0L428.92 0L428.92-16.56L432.28-16.56L432.52-13.36Q433.40-15.16 435.16-16.18Q436.92-17.20 439.20-17.20L439.20-17.20Z M464.44-16.56L468.60-16.56L459.76 0.48L459.56 0.48L450.36-16.56L454.80-16.56L459.80-6L464.44-16.56Z M475.00-16.56L478.72-16.56L478.72 0L475.00 0L475.00-16.56ZM474.72-22.52Q474.72-23.40 475.40-24Q476.08-24.60 476.96-24.60L476.96-24.60Q477.84-24.60 478.50-24Q479.16-23.40 479.16-22.52L479.16-22.52Q479.16-21.64 478.50-21.04Q477.84-20.44 476.96-20.44L476.96-20.44Q476.08-20.44 475.40-21.04Q474.72-21.64 474.72-22.52L474.72-22.52Z M499.20-16.56L503.36-16.56L494.52 0.48L494.32 0.48L485.12-16.56L489.56-16.56L494.56-6L499.20-16.56Z M517.12-2.80Q519.20-2.80 521.16-4.24L521.16-4.24L522.88-1.48Q521.56-0.60 520.02-0.10Q518.48 0.40 517.04 0.40L517.04 0.40Q514.28 0.40 512.22-0.74Q510.16-1.88 509.04-3.88Q507.92-5.88 507.92-8.40L507.92-8.40Q507.92-10.84 509.14-12.86Q510.36-14.88 512.48-16.06Q514.60-17.24 517.12-17.24L517.12-17.24Q520.36-17.24 522.54-15.34Q524.72-13.44 525.52-10.04L525.52-10.04L512.40-5.44Q513.12-4.20 514.34-3.50Q515.56-2.80 517.12-2.80L517.12-2.80ZM516.84-14.28Q514.56-14.28 513.08-12.68Q511.60-11.08 511.60-8.60L511.60-8.60Q511.60-8 511.64-7.68L511.64-7.68L521.28-11.24Q520.68-12.60 519.58-13.44Q518.48-14.28 516.84-14.28L516.84-14.28Z"/>
        </g>
      </svg>
    </g>
    <g opacity="1" transform="rotate(0 77.853 293.2605)">
      <svg width="362.959" height="70" x="77.853" y="293.2605" version="1.1" preserveAspectRatio="none" viewBox="2 -28 147.64 28.48">
        <g transform="matrix(1 0 0 1 0 0)" class="companyName">
          <path id="id-D6z1nYkh7" d="M13.24-1.60L13.24-1.60Q11.80-1.60 10.46-2.04Q9.12-2.48 8.08-3.46Q7.04-4.44 6.42-6.06Q5.80-7.68 5.80-10.04L5.80-10.04Q5.80-12.48 6.48-14.18Q7.16-15.88 8.18-16.90Q9.20-17.92 10.44-18.38Q11.68-18.84 12.80-18.84L12.80-18.84Q14.64-18.84 16-17.88Q17.36-16.92 17.80-15.52L17.80-15.52L20.56-15.52Q20.16-16.96 19.28-17.90Q18.40-18.84 17.26-19.42Q16.12-20 14.82-20.22Q13.52-20.44 12.32-20.44L12.32-20.44Q9.80-20.44 7.88-19.62Q5.96-18.80 4.64-17.40Q3.32-16 2.66-14.12Q2-12.24 2-10.12L2-10.12Q2-7.88 2.72-5.94Q3.44-4 4.78-2.58Q6.12-1.16 8-0.34Q9.88 0.48 12.24 0.48L12.24 0.48Q14.88 0.48 16.86-0.40Q18.84-1.28 20.20-2.32L20.20-2.32L19.04-3.84Q17.64-2.68 16.26-2.14Q14.88-1.60 13.24-1.60Z M44.48-9.96L44.48-9.96Q44.48-7.88 43.76-5.98Q43.04-4.08 41.70-2.64Q40.36-1.20 38.46-0.36Q36.56 0.48 34.20 0.48L34.20 0.48Q31.80 0.48 29.86-0.38Q27.92-1.24 26.58-2.68Q25.24-4.12 24.50-6.02Q23.76-7.92 23.76-9.96L23.76-9.96Q23.76-12.04 24.50-13.94Q25.24-15.84 26.58-17.28Q27.92-18.72 29.86-19.58Q31.80-20.44 34.20-20.44L34.20-20.44Q36.56-20.44 38.46-19.58Q40.36-18.72 41.70-17.28Q43.04-15.84 43.76-13.94Q44.48-12.04 44.48-9.96ZM40.68-9.96L40.68-9.96Q40.68-12.76 40.08-14.50Q39.48-16.24 38.52-17.20Q37.56-18.16 36.40-18.50Q35.24-18.84 34.16-18.84L34.16-18.84Q33.08-18.84 31.92-18.50Q30.76-18.16 29.78-17.20Q28.80-16.24 28.18-14.50Q27.56-12.76 27.56-9.96L27.56-9.96Q27.56-7.20 28.18-5.46Q28.80-3.72 29.78-2.76Q30.76-1.80 31.92-1.46Q33.08-1.12 34.16-1.12L34.16-1.12Q35.24-1.12 36.40-1.46Q37.56-1.80 38.52-2.76Q39.48-3.72 40.08-5.46Q40.68-7.20 40.68-9.96Z M67.44 0L67.44-28L64.04-28L64.04-16.72L63.88-16.72Q63.48-17.76 62.82-18.46Q62.16-19.16 61.32-19.60Q60.48-20.04 59.54-20.24Q58.60-20.44 57.64-20.44L57.64-20.44Q55.64-20.44 53.96-19.70Q52.28-18.96 51.06-17.60Q49.84-16.24 49.16-14.32Q48.48-12.40 48.48-10.04L48.48-10.04Q48.48-7.64 49.16-5.70Q49.84-3.76 51.06-2.38Q52.28-1 53.96-0.26Q55.64 0.48 57.64 0.48L57.64 0.48Q62.36 0.48 63.88-3.24L63.88-3.24L64.04-3.24L64.04 0L67.44 0ZM64.04-11.48L64.04-8Q64.04-6.68 63.60-5.50Q63.16-4.32 62.42-3.46Q61.68-2.60 60.66-2.10Q59.64-1.60 58.48-1.60L58.48-1.60Q57.20-1.60 56.08-2.06Q54.96-2.52 54.12-3.52Q53.28-4.52 52.78-6.12Q52.28-7.72 52.28-9.96L52.28-9.96Q52.28-12.24 52.78-13.84Q53.28-15.44 54.14-16.46Q55-17.48 56.12-17.94Q57.24-18.40 58.48-18.40L58.48-18.40Q59.60-18.40 60.60-17.94Q61.60-17.48 62.36-16.58Q63.12-15.68 63.58-14.40Q64.04-13.12 64.04-11.48L64.04-11.48Z M76.40-9.12L91.60-9.12L91.60-9.96Q91.60-12.64 90.84-14.60Q90.08-16.56 88.78-17.84Q87.48-19.12 85.76-19.76Q84.04-20.40 82.12-20.40L82.12-20.40Q80.08-20.40 78.36-19.70Q76.64-19 75.36-17.66Q74.08-16.32 73.36-14.42Q72.64-12.52 72.64-10.12L72.64-10.12Q72.64-8.12 73.26-6.22Q73.88-4.32 75.14-2.82Q76.40-1.32 78.34-0.42Q80.28 0.48 82.92 0.48L82.92 0.48Q85.48 0.48 87.64-0.42Q89.80-1.32 91.40-3L91.40-3L90.12-4.28Q89.28-3.56 88.54-2.96Q87.80-2.36 87.04-1.96Q86.28-1.56 85.46-1.34Q84.64-1.12 83.64-1.12L83.64-1.12Q82.52-1.12 81.26-1.46Q80-1.80 78.92-2.68Q77.84-3.56 77.12-5.12Q76.40-6.68 76.40-9.12L76.40-9.12ZM88.12-10.72L76.40-10.72Q76.40-12.32 76.74-13.82Q77.08-15.32 77.78-16.48Q78.48-17.64 79.56-18.34Q80.64-19.04 82.12-19.04L82.12-19.04Q84.96-19.04 86.54-16.82Q88.12-14.60 88.12-10.72L88.12-10.72Z M101 0L101-28L97.60-28L97.60 0L101 0Z M127.72-9.96L127.72-9.96Q127.72-7.88 127-5.98Q126.28-4.08 124.94-2.64Q123.60-1.20 121.70-0.36Q119.80 0.48 117.44 0.48L117.44 0.48Q115.04 0.48 113.10-0.38Q111.16-1.24 109.82-2.68Q108.48-4.12 107.74-6.02Q107-7.92 107-9.96L107-9.96Q107-12.04 107.74-13.94Q108.48-15.84 109.82-17.28Q111.16-18.72 113.10-19.58Q115.04-20.44 117.44-20.44L117.44-20.44Q119.80-20.44 121.70-19.58Q123.60-18.72 124.94-17.28Q126.28-15.84 127-13.94Q127.72-12.04 127.72-9.96ZM123.92-9.96L123.92-9.96Q123.92-12.76 123.32-14.50Q122.72-16.24 121.76-17.20Q120.80-18.16 119.64-18.50Q118.48-18.84 117.40-18.84L117.40-18.84Q116.32-18.84 115.16-18.50Q114-18.16 113.02-17.20Q112.04-16.24 111.42-14.50Q110.80-12.76 110.80-9.96L110.80-9.96Q110.80-7.20 111.42-5.46Q112.04-3.72 113.02-2.76Q114-1.80 115.16-1.46Q116.32-1.12 117.40-1.12L117.40-1.12Q118.48-1.12 119.64-1.46Q120.80-1.80 121.76-2.76Q122.72-3.72 123.32-5.46Q123.92-7.20 123.92-9.96Z M146.24 0L149.64 0L149.64-12.96Q149.64-13.68 149.52-14.94Q149.40-16.20 148.74-17.42Q148.08-18.64 146.64-19.54Q145.20-20.44 142.56-20.44L142.56-20.44Q141.40-20.48 139.96-19.98Q138.52-19.48 137.12-18.08L137.12-18.08L136.48-17.44L136.32-17.44L136.32-20L132.92-20L132.92 0L136.32 0L136.32-12.36Q136.32-13.92 136.76-15.04Q137.20-16.16 137.96-16.92Q138.72-17.68 139.70-18.04Q140.68-18.40 141.72-18.40L141.72-18.40Q143.40-18.40 144.32-17.74Q145.24-17.08 145.66-16.20Q146.08-15.32 146.16-14.44Q146.24-13.56 146.24-13.16L146.24-13.16L146.24 0Z"/>
        </g>
      </svg>
    </g>
  </svg>
</svg>
